<svg xmlns="http://www.w3.org/2000/svg" viewBox="0 0 1200 750" width="1200" height="750" role="img" aria-label="Agent Templates — copyable system prompts by scenario">
  <defs>
    <linearGradient id="bg" x1="0" y1="0" x2="1" y2="1">
      <stop offset="0" stop-color="#f6f3ec"/><stop offset="1" stop-color="#ece6da"/>
    </linearGradient>
    <radialGradient id="glow" cx="0.5" cy="0.4" r="0.6">
      <stop offset="0" stop-color="#8a682c" stop-opacity="0.13"/><stop offset="1" stop-color="#8a682c" stop-opacity="0"/>
    </radialGradient>
    <filter id="soft" x="-20%" y="-20%" width="140%" height="140%">
      <feGaussianBlur stdDeviation="6" result="b"/><feMerge><feMergeNode in="b"/><feMergeNode in="SourceGraphic"/></feMerge>
    </filter>
  </defs>
  <rect width="1200" height="750" fill="url(#bg)"/>
  <ellipse cx="600" cy="320" rx="520" ry="360" fill="url(#glow)"/>

  <text x="80" y="104" font-family="'Cormorant Garamond', Georgia, serif" font-size="56" font-weight="600" fill="#1c1a17">Agent 模板库</text>
  <text x="82" y="150" font-family="'JetBrains Mono', monospace" font-size="20" fill="#8a682c">Agent Templates · copy a system prompt, ship an agent</text>

  <!-- six template cards (emoji + title bar + tool chips + copy button) -->
  <g font-family="'JetBrains Mono', monospace">
    <!-- generator for 3x2 grid -->
    <!-- card 1 -->
    <g filter="url(#soft)"><rect x="80" y="208" width="330" height="200" rx="14" fill="#fffdf8" stroke="rgba(28,26,23,0.1)"/></g>
    <rect x="104" y="232" width="40" height="40" rx="10" fill="rgba(28,26,23,0.05)"/><text x="124" y="260" text-anchor="middle" font-size="22">🎬</text>
    <text x="160" y="252" font-family="Georgia, serif" font-size="19" font-weight="700" fill="#1c1a17">YouTube 编剧</text>
    <text x="160" y="274" font-size="12" fill="rgba(28,26,23,0.45)">内容创作</text>
    <rect x="104" y="296" width="60" height="22" rx="11" fill="rgba(28,26,23,0.05)"/><text x="134" y="311" text-anchor="middle" font-size="11" fill="rgba(28,26,23,0.55)">YouTube</text>
    <rect x="170" y="296" width="54" height="22" rx="11" fill="rgba(28,26,23,0.05)"/><text x="197" y="311" text-anchor="middle" font-size="11" fill="rgba(28,26,23,0.55)">Notion</text>
    <rect x="104" y="350" width="120" height="30" rx="15" fill="none" stroke="#8a682c" stroke-opacity="0.5"/><text x="164" y="370" text-anchor="middle" font-size="12" fill="#8a682c">复制提示词</text>

    <!-- card 2 -->
    <g filter="url(#soft)"><rect x="435" y="208" width="330" height="200" rx="14" fill="#fffdf8" stroke="rgba(28,26,23,0.1)"/></g>
    <rect x="459" y="232" width="40" height="40" rx="10" fill="rgba(28,26,23,0.05)"/><text x="479" y="260" text-anchor="middle" font-size="22">🔍</text>
    <text x="515" y="252" font-family="Georgia, serif" font-size="19" font-weight="700" fill="#1c1a17">代码评审官</text>
    <text x="515" y="274" font-size="12" fill="rgba(28,26,23,0.45)">工程开发</text>
    <rect x="459" y="296" width="60" height="22" rx="11" fill="rgba(28,26,23,0.05)"/><text x="489" y="311" text-anchor="middle" font-size="11" fill="rgba(28,26,23,0.55)">GitHub</text>
    <rect x="459" y="350" width="120" height="30" rx="15" fill="none" stroke="#8a682c" stroke-opacity="0.5"/><text x="519" y="370" text-anchor="middle" font-size="12" fill="#8a682c">复制提示词</text>

    <!-- card 3 -->
    <g filter="url(#soft)"><rect x="790" y="208" width="330" height="200" rx="14" fill="#fffdf8" stroke="rgba(28,26,23,0.1)"/></g>
    <rect x="814" y="232" width="40" height="40" rx="10" fill="rgba(28,26,23,0.05)"/><text x="834" y="260" text-anchor="middle" font-size="22">📈</text>
    <text x="870" y="252" font-family="Georgia, serif" font-size="19" font-weight="700" fill="#1c1a17">增长营销官</text>
    <text x="870" y="274" font-size="12" fill="rgba(28,26,23,0.45)">营销增长</text>
    <rect x="814" y="296" width="58" height="22" rx="11" fill="rgba(28,26,23,0.05)"/><text x="843" y="311" text-anchor="middle" font-size="11" fill="rgba(28,26,23,0.55)">Google</text>
    <rect x="878" y="296" width="48" height="22" rx="11" fill="rgba(28,26,23,0.05)"/><text x="902" y="311" text-anchor="middle" font-size="11" fill="rgba(28,26,23,0.55)">Slack</text>
    <rect x="814" y="350" width="120" height="30" rx="15" fill="none" stroke="#8a682c" stroke-opacity="0.5"/><text x="874" y="370" text-anchor="middle" font-size="12" fill="#8a682c">复制提示词</text>

    <!-- card 4 -->
    <g filter="url(#soft)"><rect x="80" y="428" width="330" height="200" rx="14" fill="#fffdf8" stroke="rgba(28,26,23,0.1)"/></g>
    <rect x="104" y="452" width="40" height="40" rx="10" fill="rgba(28,26,23,0.05)"/><text x="124" y="480" text-anchor="middle" font-size="22">🗂️</text>
    <text x="160" y="472" font-family="Georgia, serif" font-size="19" font-weight="700" fill="#1c1a17">智能助理</text>
    <text x="160" y="494" font-size="12" fill="rgba(28,26,23,0.45)">效率办公</text>
    <rect x="104" y="516" width="48" height="22" rx="11" fill="rgba(28,26,23,0.05)"/><text x="128" y="531" text-anchor="middle" font-size="11" fill="rgba(28,26,23,0.55)">Gmail</text>
    <rect x="158" y="516" width="74" height="22" rx="11" fill="rgba(28,26,23,0.05)"/><text x="195" y="531" text-anchor="middle" font-size="11" fill="rgba(28,26,23,0.55)">Calendar</text>
    <rect x="104" y="570" width="120" height="30" rx="15" fill="none" stroke="#8a682c" stroke-opacity="0.5"/><text x="164" y="590" text-anchor="middle" font-size="12" fill="#8a682c">复制提示词</text>

    <!-- card 5 -->
    <g filter="url(#soft)"><rect x="435" y="428" width="330" height="200" rx="14" fill="#fffdf8" stroke="rgba(28,26,23,0.1)"/></g>
    <rect x="459" y="452" width="40" height="40" rx="10" fill="rgba(28,26,23,0.05)"/><text x="479" y="480" text-anchor="middle" font-size="22">📝</text>
    <text x="515" y="472" font-family="Georgia, serif" font-size="19" font-weight="700" fill="#1c1a17">产品经理 PRD</text>
    <text x="515" y="494" font-size="12" fill="rgba(28,26,23,0.45)">产品</text>
    <rect x="459" y="516" width="54" height="22" rx="11" fill="rgba(28,26,23,0.05)"/><text x="486" y="531" text-anchor="middle" font-size="11" fill="rgba(28,26,23,0.55)">Notion</text>
    <rect x="519" y="516" width="52" height="22" rx="11" fill="rgba(28,26,23,0.05)"/><text x="545" y="531" text-anchor="middle" font-size="11" fill="rgba(28,26,23,0.55)">Linear</text>
    <rect x="459" y="570" width="120" height="30" rx="15" fill="none" stroke="#8a682c" stroke-opacity="0.5"/><text x="519" y="590" text-anchor="middle" font-size="12" fill="#8a682c">复制提示词</text>

    <!-- card 6 -->
    <g filter="url(#soft)"><rect x="790" y="428" width="330" height="200" rx="14" fill="#fffdf8" stroke="rgba(28,26,23,0.1)"/></g>
    <rect x="814" y="452" width="40" height="40" rx="10" fill="rgba(28,26,23,0.05)"/><text x="834" y="480" text-anchor="middle" font-size="22">🔬</text>
    <text x="870" y="472" font-family="Georgia, serif" font-size="19" font-weight="700" fill="#1c1a17">深度研究员</text>
    <text x="870" y="494" font-size="12" fill="rgba(28,26,23,0.45)">研究</text>
    <rect x="814" y="516" width="42" height="22" rx="11" fill="rgba(28,26,23,0.05)"/><text x="835" y="531" text-anchor="middle" font-size="11" fill="rgba(28,26,23,0.55)">Web</text>
    <rect x="862" y="516" width="54" height="22" rx="11" fill="rgba(28,26,23,0.05)"/><text x="889" y="531" text-anchor="middle" font-size="11" fill="rgba(28,26,23,0.55)">Notion</text>
    <rect x="814" y="570" width="120" height="30" rx="15" fill="none" stroke="#8a682c" stroke-opacity="0.5"/><text x="874" y="590" text-anchor="middle" font-size="12" fill="#8a682c">复制提示词</text>
  </g>

  <text x="80" y="688" font-family="'JetBrains Mono', monospace" font-size="17" fill="#1c1a17" fill-opacity="0.55">内容创作 · 工程开发 · 营销增长 · 效率办公 · 产品 · 研究 — 复制即用的系统提示词</text>
</svg>
